<svg id="_1" data-name="1" xmlns="http://www.w3.org/2000/svg" viewBox="0 0 42.49 58.87"><defs><style>.cls-1{fill:#fff;}.cls-2{fill:#a7c7fc;}.cls-3{fill:#1e81ce;}</style></defs><title>13</title><g id="_1048_Basket_been_delete_garbage_trash" data-name="1048, Basket, been, delete, garbage, trash"><polygon class="cls-1" points="41.48 6.07 41.48 12.34 37.73 12.34 4.86 12.34 1.01 12.34 1.01 6.07 16.19 6.07 26.3 6.07 41.48 6.07"/><path class="cls-2" d="M48.44,22.94V65.42a3,3,0,0,1-3,3H18.6a3,3,0,0,1-3-3V22.94Z" transform="translate(-10.71 -10.6)"/><path class="cls-3" d="M45.41,69.47H18.6a4.07,4.07,0,0,1-4.05-4V22.94a1,1,0,0,1,2,0V65.42a2,2,0,0,0,2,2H45.41a2,2,0,0,0,2-2V22.94a1,1,0,0,1,2,0V65.42A4.07,4.07,0,0,1,45.41,69.47Z" transform="translate(-10.71 -10.6)"/><path class="cls-3" d="M52.19,24H11.72a1,1,0,0,1-1-1V16.56a1,1,0,0,1,1-1H26.9a1,1,0,0,1,0,2H12.73v4.35H51.17V17.58H37a1,1,0,0,1,0-2H52.19a1,1,0,0,1,1,1v6.38A1,1,0,0,1,52.19,24Z" transform="translate(-10.71 -10.6)"/><path class="cls-3" d="M37,17.68H26.9a1,1,0,0,1-1-1V11.61a1,1,0,0,1,1-1H37a1,1,0,0,1,1,1v5.06A1,1,0,0,1,37,17.68Zm-9.1-2H36v-3H27.91Z" transform="translate(-10.71 -10.6)"/><path class="cls-3" d="M39.54,59.36a1,1,0,0,1-1-1V33.05a1,1,0,0,1,2,0V58.34A1,1,0,0,1,39.54,59.36Z" transform="translate(-10.71 -10.6)"/><path class="cls-3" d="M32,59.36a1,1,0,0,1-1-1V33.05a1,1,0,0,1,2,0V58.34A1,1,0,0,1,32,59.36Z" transform="translate(-10.71 -10.6)"/><path class="cls-3" d="M24.37,59.36a1,1,0,0,1-1-1V33.05a1,1,0,0,1,2,0V58.34A1,1,0,0,1,24.37,59.36Z" transform="translate(-10.71 -10.6)"/></g></svg>