<svg id="_1" data-name="1" xmlns="http://www.w3.org/2000/svg" viewBox="0 0 51.75 46.33"><defs><style>.cls-1{fill:#a7c7fc;}.cls-2{fill:#1e81ce;}</style></defs><title>12</title><g id="_1037_arrow_down_downlod" data-name="1037, arrow, down, downlod"><path class="cls-1" d="M55.45,25.68a2.77,2.77,0,0,1,2.32,4.25L33.49,55.73,9.22,29.93a2.74,2.74,0,0,1,2.32-4.25h6V14.35a2.93,2.93,0,0,1,2.93-2.93h26.2a2.94,2.94,0,0,1,2.94,2.93V25.68Z" transform="translate(-7.82 -10.41)"/><path class="cls-2" d="M33.49,56.74a.91.91,0,0,1-.7-.3L8.51,30.64l-.1-.1a3.76,3.76,0,0,1,3.23-5.77h5V14.35a4,4,0,0,1,3.95-3.94h26.2a4,4,0,0,1,3.94,3.94V24.67h5.06A3.76,3.76,0,0,1,59,30.44c0,.1-.11.1-.11.1L34.61,56.33A2.41,2.41,0,0,1,33.49,56.74ZM10,29.33l23.46,25L57,29.33a1.7,1.7,0,0,0,0-1.72,1.67,1.67,0,0,0-1.51-.92H49.38a1,1,0,0,1-1-1V14.35a1.91,1.91,0,0,0-1.92-1.92H20.34a1.92,1.92,0,0,0-1.92,1.92V25.68a1,1,0,0,1-1,1h-6a1.68,1.68,0,0,0-1.52.92A2.06,2.06,0,0,0,10,29.33Z" transform="translate(-7.82 -10.41)"/></g></svg>