<svg xmlns="http://www.w3.org/2000/svg" viewBox="0 0 100 100" id="apple-photos"><path fill="#fff" d="M63.6 5c9 0 13.6 0 18.4 1.5 5.3 1.9 9.5 6.1 11.4 11.4C95 22.8 95 27.3 95 36.4v27.2c0 9 0 13.6-1.5 18.4-1.9 5.3-6.1 9.5-11.4 11.4C77.2 95 72.7 95 63.6 95H36.4c-9 0-13.6 0-18.4-1.5-5.3-2-9.5-6.2-11.5-11.5C5 77.2 5 72.7 5 63.6V36.4c0-9 0-13.6 1.5-18.4 2-5.3 6.2-9.5 11.5-11.5C22.8 5 27.3 5 36.4 5h27.2z"></path><path fill="#ff7e7b" d="M35.8 38c.9 0 1.7.1 2.5.3-.2-.8-.3-1.7-.3-2.5V23c0-.6.1-1.1.1-1.6-4.7-3.5-11.4-3.1-15.6 1.1s-4.6 10.9-1.1 15.6c.5-.1 1.1-.1 1.6-.1h12.8z"></path><path fill="#ff6f3f" d="M49.2 47.7c-.6 0-1.1-.1-1.7-.2.1.5.2 1.1.2 1.7.3-.2.5-.4.8-.7.2-.3.4-.5.7-.8z"></path><path fill="#ffac00" d="M48.5 31.5c.6.6 1.2 1.3 1.6 2 .5-.7 1-1.4 1.6-2l9-9c.4-.4.7-.7 1.1-1C61.2 15.6 56.1 11 50 11c-6.1 0-11.1 4.5-11.9 10.4.5.3.9.7 1.3 1.1l9.1 9z"></path><path fill="#ffc300" d="M51 47.7c-.3-.4-.7-.8-.9-1.3-.3.4-.6.9-.9 1.3h.8c.3.1.7 0 1 0z"></path><path fill="#ff3400" d="M38 35.8c0 .9.1 1.7.3 2.5 4.6 1 8.2 4.6 9.2 9.2.5.1 1.1.2 1.7.2.3-.4.7-.8.9-1.3-2.5-3.9-2.5-9 0-12.9-.5-.7-1-1.4-1.6-2l-9-9c-.4-.4-.9-.8-1.3-1.1-.1.5-.2 1-.2 1.6v12.8z"></path><path fill="#f0ea0d" d="M62 35.8c0 .9-.1 1.7-.3 2.5.8-.2 1.7-.3 2.5-.3H77c.6 0 1.2.1 1.8.2 3.5-4.7 3.2-11.4-1.1-15.7-4.3-4.3-11.1-4.6-15.8-1 .1.5.1 1 .1 1.5v12.8z"></path><path fill="#dae411" d="M52.3 49c0-.5.1-1 .2-1.5-.5.1-1 .2-1.5.2.2.3.5.5.7.8.2.2.4.3.6.5z"></path><path fill="#eaa200" d="M51.7 31.5c-.6.6-1.2 1.3-1.6 2 2.5 3.9 2.5 9 0 12.9.3.4.6.9.9 1.3.5 0 1-.1 1.5-.2 1-4.6 4.6-8.2 9.2-9.2.2-.8.3-1.7.3-2.5V23c0-.5 0-1-.1-1.5-.4.3-.8.6-1.1 1l-9.1 9z"></path><path fill="#e63300" d="M50.1 33.5c-2.5 3.9-2.5 9 0 12.9 2.5-3.9 2.5-8.9 0-12.9z"></path><path fill="#83d567" d="M52.2 50c0 .4 0 .8.1 1.2.5-.4 1-.8 1.5-1.1-.5-.3-1-.7-1.5-1.1 0 .3-.1.7-.1 1z"></path><path fill="#a2dd50" d="M89 50c0-6-4.4-11-10.2-11.8-.3.5-.7.9-1.1 1.3l-9 9c-.6.6-1.3 1.2-2 1.6.7.5 1.4 1 2 1.6l9 9c.4.4.7.7 1 1.1C84.5 61 89 56.1 89 50z"></path><path fill="#8bc100" d="M64.2 38c-.9 0-1.7.1-2.5.3-1 4.6-4.6 8.2-9.2 9.2-.1.5-.2 1-.2 1.5.5.4 1 .8 1.5 1.1 3.9-2.5 9-2.5 12.9 0 .7-.5 1.4-1 2-1.6l9-9c.4-.4.8-.9 1.1-1.3-.6-.1-1.2-.2-1.8-.2H64.2z"></path><path fill="#8d8800" d="M61.7 38.3c-4.6 1-8.2 4.6-9.2 9.2 4.6-1 8.2-4.6 9.2-9.2z"></path><path fill="#44c899" d="M64.2 62c-.9 0-1.7-.1-2.5-.3.2.8.3 1.7.3 2.5V77c0 .6-.1 1.1-.1 1.7 4.7 3.7 11.5 3.4 15.9-1 4.3-4.3 4.7-11.1 1-15.9-.7.1-1.2.2-1.8.2H64.2z"></path><path fill="#4ebfbd" d="M51.2 52.3c.4 0 .9.1 1.3.2-.1-.4-.2-.9-.2-1.3-.2.2-.4.3-.6.5s-.3.4-.5.6z"></path><path fill="#00a33f" d="M68.7 51.7c-.6-.6-1.3-1.2-2-1.6-3.9 2.5-9 2.5-12.9 0-.5.3-1 .7-1.5 1.1 0 .4.1.9.2 1.3 4.6 1 8.2 4.6 9.2 9.2.8.2 1.7.3 2.5.3H77c.6 0 1.1-.1 1.7-.1-.3-.4-.6-.8-1-1.1l-9-9.1z"></path><path fill="#008d08" d="M53.8 50.1c3.9 2.5 9 2.5 12.9 0-4-2.5-9-2.5-12.9 0z"></path><path fill="#859ed5" d="M49 52.3c.4.5.8 1 1.1 1.5.3-.5.7-1 1.1-1.5-.4 0-.8-.1-1.2-.1-.3 0-.7.1-1 .1z"></path><path fill="#6eacdf" d="M51.7 68.7c-.6-.6-1.2-1.3-1.6-2-.5.7-1 1.4-1.6 2l-9 9c-.4.4-.9.8-1.3 1.1C39 84.6 44 89 50 89c6.1 0 11-4.5 11.9-10.3-.4-.3-.8-.6-1.1-1l-9.1-9z"></path><path fill="#1d7b97" d="M62 64.2c0-.9-.1-1.7-.3-2.5-4.6-1-8.2-4.6-9.2-9.2-.4-.1-.9-.2-1.3-.2-.4.5-.8 1-1.1 1.5 2.5 3.9 2.5 9 0 12.9.5.7 1 1.4 1.6 2l9 9c.4.4.7.7 1.1 1 .1-.6.1-1.1.1-1.7V64.2z"></path><path fill="#00683a" d="M61.7 61.7c-1-4.6-4.6-8.2-9.2-9.2 1 4.6 4.6 8.2 9.2 9.2z"></path><path fill="#be85c1" d="M47.7 51c0 .5-.1 1-.2 1.5.5-.1 1-.2 1.5-.2-.2-.2-.3-.4-.5-.6-.3-.2-.5-.4-.8-.7z"></path><path fill="#ab86c4" d="M38 64.2c0-.9.1-1.7.3-2.5-.8.2-1.7.3-2.5.3H23c-.5 0-1 0-1.5-.1-3.7 4.7-3.3 11.5 1 15.8 4.3 4.3 11 4.6 15.7 1.1-.1-.6-.2-1.2-.2-1.8V64.2z"></path><path fill="#5d53a6" d="M48.5 68.7c.6-.6 1.2-1.3 1.6-2-2.5-3.9-2.5-9 0-12.9-.3-.5-.7-1-1.1-1.5-.5 0-1 .1-1.5.2-1 4.6-4.6 8.2-9.2 9.2-.2.8-.3 1.7-.3 2.5V77c0 .6.1 1.2.2 1.8.5-.3.9-.7 1.3-1.1l9-9z"></path><path fill="#243f76" d="M50.1 66.7c2.5-3.9 2.5-9 0-12.9-2.5 3.9-2.5 8.9 0 12.9z"></path><path fill="#f1648a" d="M47.7 49.2c-.4.3-.8.7-1.3.9.4.3.9.6 1.3.9 0-.3.1-.7.1-1 0-.3-.1-.6-.1-.8z"></path><path fill="#e275a8" d="M31.5 51.7c.6-.6 1.3-1.2 2-1.6-.7-.5-1.4-1-2-1.6l-9-9c-.4-.4-.8-.9-1.1-1.3C15.5 38.9 11 43.9 11 50c0 6.1 4.6 11.2 10.5 11.9.3-.4.6-.8 1-1.1l9-9.1z"></path><path fill="#e40017" d="M31.5 48.5c.6.6 1.3 1.2 2 1.6 3.9-2.5 9-2.5 12.9 0 .4-.3.9-.6 1.3-.9 0-.6-.1-1.1-.2-1.7-4.6-1-8.2-4.6-9.2-9.2-.8-.2-1.7-.3-2.5-.3H23c-.6 0-1.1.1-1.6.1.3.5.7.9 1.1 1.3l9 9.1z"></path><path fill="#e60000" d="M38.3 38.3c1 4.6 4.6 8.2 9.2 9.2-1-4.6-4.6-8.2-9.2-9.2z"></path><path fill="#9f3174" d="M35.8 62c.9 0 1.7-.1 2.5-.3 1-4.6 4.6-8.2 9.2-9.2.1-.5.2-1 .2-1.5-.4-.3-.8-.7-1.3-.9-3.9 2.5-9 2.5-12.9 0-.7.5-1.4 1-2 1.6l-9 9c-.4.4-.7.7-1 1.1.5.2 1 .2 1.5.2h12.8z"></path><path fill="#9f0017" d="M33.5 50.1c3.9 2.5 9 2.5 12.9 0-3.9-2.5-8.9-2.5-12.9 0z"></path><path fill="#561e5d" d="M38.3 61.7c4.6-1 8.2-4.6 9.2-9.2-4.6 1-8.2 4.6-9.2 9.2z"></path></svg>